<?xml version="1.0" standalone="no"?>
<!DOCTYPE svg PUBLIC "-//W3C//DTD SVG 20010904//EN"
 "http://www.w3.org/TR/2001/REC-SVG-20010904/DTD/svg10.dtd">
<svg version="1.0" xmlns="http://www.w3.org/2000/svg"
 width="980.000000pt" height="980.000000pt" viewBox="0 0 980.000000 980.000000"
 preserveAspectRatio="xMidYMid meet">

<g transform="translate(0.000000,980.000000) scale(0.100000,-0.100000)"
fill="#000000" stroke="none">
<path d="M8400 8569 c-38 -15 -78 -58 -92 -98 -24 -73 -13 -164 48 -381 31
-113 63 -233 72 -268 24 -103 2 -176 -53 -182 -43 -5 -59 1 -93 38 -33 34 -34
35 -13 5 65 -96 181 -104 238 -16 34 52 23 154 -40 374 -71 247 -78 280 -79
355 -1 151 105 203 217 105 26 -23 26 -21 -4 11 -57 63 -133 84 -201 57z"/>
<path d="M4808 8484 c-31 -16 -24 6 -114 -349 -36 -143 -68 -263 -71 -267 -5
-10 -80 -10 -188 -2 l-80 7 3 74 c2 43 -1 79 -7 87 -15 18 -556 32 -606 16
l-35 -12 0 -89 0 -89 -30 0 c-152 0 -348 -117 -434 -259 -60 -97 -76 -179 -76
-381 l-1 -175 -19 37 c-11 20 -24 39 -29 42 -5 4 4 -18 20 -46 20 -37 29 -67
29 -100 0 -27 5 -48 10 -48 12 0 13 -84 1 -108 -5 -9 -14 -35 -20 -58 -34
-128 -195 -234 -355 -234 -167 0 -318 96 -393 248 -25 50 -28 68 -28 152 0 87
3 101 33 162 58 118 175 194 314 205 125 9 235 -30 337 -121 l46 -40 -49 51
c-195 205 -551 184 -705 -41 -80 -116 -93 -281 -33 -411 154 -327 625 -371
814 -76 l28 45 0 -212 c0 -206 -1 -212 -20 -212 -65 0 -154 -76 -168 -144 -17
-86 7 -132 113 -214 l74 -57 2 -217 c1 -120 3 -226 3 -235 1 -23 -98 -80 -228
-133 -87 -35 -106 -39 -135 -30 -19 5 -41 15 -50 22 -10 7 -5 1 11 -14 31 -30
98 -52 131 -43 47 14 155 59 221 92 37 19 69 33 70 31 44 -94 79 -149 127
-199 32 -34 59 -62 59 -64 0 -1 -53 -27 -117 -58 -141 -67 -249 -105 -319
-113 -66 -8 -174 10 -241 41 l-52 23 -12 -36 c-71 -223 -294 -435 -620 -591
-212 -102 -393 -151 -553 -151 -320 1 -591 231 -637 542 -28 190 68 434 241
609 163 166 315 204 380 96 11 -18 20 -26 20 -20 0 7 -16 30 -35 52 -91 101
-254 68 -413 -83 -88 -84 -144 -161 -201 -273 -122 -244 -115 -461 21 -680 49
-78 158 -181 240 -226 108 -61 202 -82 358 -81 119 0 149 4 250 31 205 55 446
171 607 292 143 107 272 257 323 376 11 25 21 45 24 45 2 0 44 -9 93 -21 159
-38 277 -12 540 121 l156 79 36 -18 c107 -55 105 -55 699 -59 l552 -3 0 -151
c0 -143 1 -154 25 -194 41 -69 82 -88 205 -94 l105 -5 3 -92 3 -93 -25 0 c-14
0 -38 -11 -53 -24 l-28 -24 -5 -203 -5 -202 -245 271 c-202 225 -247 279 -256
314 -18 70 -42 107 -90 138 -62 39 -102 44 -189 25 -82 -19 -141 -59 -169
-119 -18 -37 -22 -137 -7 -165 7 -12 1 -79 -15 -201 -14 -102 -27 -186 -29
-188 -4 -4 -67 9 -410 88 -121 28 -321 73 -445 101 l-225 51 -57 58 c-39 41
-81 70 -135 96 -69 34 -89 39 -170 42 -81 4 -103 1 -200 -28 -59 -18 -134 -46
-165 -61 -119 -60 -211 -186 -239 -328 -13 -69 48 12 -1048 -1390 -101 -129
-188 -242 -194 -252 -8 -12 -5 -24 11 -47 12 -16 22 -32 22 -35 0 -2 -48 -7
-106 -11 -179 -11 -334 -47 -334 -75 0 -16 40 -39 90 -51 71 -16 325 -40 441
-40 270 0 542 41 556 86 10 29 -138 66 -319 79 -54 4 -98 10 -98 14 0 7 -77
-55 763 619 615 493 703 560 740 565 23 4 89 23 147 42 58 20 114 38 126 41
18 5 597 -123 934 -206 63 -16 151 -36 195 -46 l80 -18 -80 -11 c-71 -10 -84
-9 -118 7 -94 46 -242 36 -346 -23 -119 -68 -174 -236 -115 -351 18 -35 17
-150 -7 -533 -5 -93 -16 -284 -23 -423 -8 -139 -16 -255 -18 -257 -3 -3 -42
-7 -89 -10 -46 -3 -92 -8 -101 -11 -9 -3 -25 -6 -35 -8 -10 -2 -34 -6 -54 -10
-21 -4 -42 -13 -48 -20 -10 -11 -3 -17 36 -30 183 -59 773 -41 773 24 0 21
-89 41 -252 56 -40 3 -68 10 -68 17 0 9 114 403 256 883 24 82 44 155 44 161
0 6 30 32 68 56 l67 45 494 57 c468 54 498 56 571 44 131 -21 280 19 372 100
20 17 40 31 45 31 5 0 68 -69 140 -153 72 -84 140 -160 151 -170 19 -17 23
-14 138 119 66 75 135 155 154 176 l35 40 39 -31 c111 -89 261 -120 401 -85
l64 16 370 -146 c309 -123 372 -151 386 -174 10 -15 29 -39 43 -54 l25 -27 8
-353 c4 -194 9 -450 11 -568 l3 -215 -60 -8 c-33 -4 -73 -9 -90 -10 -127 -15
-156 -20 -172 -32 -22 -17 -14 -25 34 -36 21 -4 61 -13 88 -20 108 -26 590
-12 640 19 5 4 16 7 24 9 35 5 30 21 -11 38 -39 16 -147 27 -239 25 -20 0 -41
6 -47 13 -9 10 12 124 84 458 52 244 104 491 116 549 17 84 28 116 59 163 64
97 75 174 39 271 -26 69 -79 122 -162 163 -86 43 -132 52 -204 42 l-59 -9
-258 102 c-142 57 -259 108 -259 113 -1 6 33 27 74 48 l75 37 394 -13 395 -14
46 -27 c25 -15 48 -32 51 -39 135 -346 287 -752 287 -768 0 -17 -4 -20 -24
-15 -14 3 -27 2 -31 -4 -3 -5 -21 -9 -40 -8 -44 2 -55 -9 -22 -21 64 -25 290
-23 394 2 44 11 -4 31 -99 42 -34 4 -58 11 -58 18 -1 7 -27 202 -59 435 -54
395 -57 427 -44 475 14 54 9 104 -13 148 -20 40 -89 97 -131 108 -64 18 -163
14 -206 -9 -30 -16 -56 -20 -144 -20 -60 0 -103 4 -97 9 14 13 751 391 762
391 11 0 16 -39 32 -255 6 -77 33 -419 61 -760 28 -341 53 -656 56 -701 l6
-81 -104 -7 c-195 -14 -329 -46 -329 -80 0 -20 67 -44 178 -63 136 -23 574
-23 720 0 125 20 201 50 182 71 -24 31 -150 59 -312 71 -71 6 -88 10 -88 23 0
9 9 72 20 141 11 69 69 452 130 851 151 994 134 902 177 958 108 141 121 320
35 491 -55 111 -183 207 -314 236 -35 8 -83 21 -108 30 -62 23 -173 30 -242
16 -127 -27 -255 -122 -313 -233 l-29 -55 -330 -168 c-182 -92 -407 -207 -501
-255 -93 -48 -325 -166 -515 -263 -343 -174 -345 -175 -390 -167 -25 5 -62 9
-82 10 l-38 0 0 215 c0 216 0 216 -25 240 -13 14 -29 25 -35 25 -6 0 -10 36
-10 95 l0 95 94 0 c102 0 144 12 189 54 48 45 57 81 57 241 l0 145 503 0 c276
0 534 5 573 10 180 23 335 134 418 297 56 111 56 111 56 960 l0 781 34 21 c49
31 113 103 138 158 13 27 23 49 24 51 1 2 26 -4 55 -12 204 -61 478 61 572
254 29 60 57 174 56 230 -1 23 -7 6 -19 -52 -10 -49 -32 -113 -51 -148 -102
-191 -378 -287 -553 -192 -50 27 -56 28 -56 11 0 -38 -42 -129 -81 -172 -35
-41 -96 -87 -113 -87 -3 0 -6 75 -6 166 0 151 -2 172 -26 242 -26 79 -53 131
-86 168 -22 25 -114 345 -124 432 -19 169 104 252 228 156 20 -16 16 -10 -9
14 -108 101 -266 60 -304 -80 -18 -69 1 -197 55 -365 7 -21 5 -21 -61 7 -90
38 -186 51 -371 50 l-154 -1 7 33 c13 59 24 78 57 98 61 37 131 21 183 -42 15
-18 22 -23 16 -11 -19 37 -91 91 -132 98 -101 17 -178 -28 -205 -121 l-15 -54
-259 0 -259 0 -10 38 c-5 20 -37 147 -71 282 -33 135 -66 255 -72 267 -6 12
-24 27 -41 33 -20 6 -279 10 -771 10 -633 -1 -745 -3 -768 -16z m-598 -1087
c0 -371 -2 -394 -49 -462 -28 -42 -127 -109 -148 -101 -7 3 -15 1 -18 -4 -4
-6 -71 -10 -155 -10 l-149 0 -6 38 c-4 20 -7 44 -8 52 -2 13 24 16 163 20 187
6 214 14 276 82 69 77 69 76 69 441 0 264 2 324 13 310 9 -13 12 -102 12 -366z
m1580 -106 c31 -9 38 -19 63 -77 15 -37 26 -69 24 -71 -2 -2 -30 6 -62 17
-181 62 -414 41 -590 -54 -195 -105 -256 -153 -294 -230 -37 -72 -88 -219
-106 -300 -23 -104 -17 -282 14 -376 11 -36 21 -70 21 -76 0 -14 -91 -57 -100
-47 -15 15 -48 140 -61 223 -30 211 30 460 155 634 133 186 352 326 573 366
63 11 318 5 363 -9z m213 -82 c123 -62 259 -191 340 -320 49 -79 92 -179 78
-179 -25 0 -139 91 -194 154 -34 39 -88 96 -119 126 -49 47 -158 207 -158 232
0 12 6 10 53 -13z m-382 -279 c37 -35 41 -43 35 -72 -13 -68 -76 -101 -139
-74 -65 27 -79 106 -28 157 42 42 80 39 132 -11z m-294 -6 c55 -41 90 -119 77
-170 -5 -19 -11 -21 -44 -17 -34 5 -43 1 -70 -25 -22 -23 -30 -40 -30 -66 0
-35 -1 -36 -37 -36 -91 1 -169 89 -160 182 9 97 86 162 185 155 32 -2 63 -12
79 -23z m-1747 -6 c1 -7 5 -32 9 -55 l8 -43 -198 0 -199 0 0 55 0 55 190 0
c145 0 190 -3 190 -12z m1759 -257 c11 -7 7 -14 -20 -30 -42 -26 -49 -26 -49
-3 0 35 37 53 69 33z m1058 -36 c75 -35 78 -43 77 -215 -3 -343 -189 -638
-503 -795 -205 -102 -482 -115 -705 -31 -87 33 -248 128 -235 140 2 2 28 16
58 31 l54 27 26 -20 c39 -28 160 -80 228 -96 363 -89 748 98 896 436 50 114
62 175 61 318 0 91 -5 152 -16 188 -8 29 -13 51 -9 50 3 -2 34 -16 68 -33z
m-3227 -516 l0 -130 -34 26 c-47 36 -66 68 -66 110 0 44 14 73 49 102 48 41
51 34 51 -108z m1727 -56 c12 -32 109 -157 152 -196 24 -22 39 -42 35 -47 -17
-15 -99 -47 -111 -43 -18 6 -117 131 -158 198 l-36 60 48 21 c60 28 62 28 70
7z m3693 -1299 c83 -45 129 -123 129 -219 1 -179 -195 -300 -357 -219 -153 76
-186 267 -68 392 79 85 193 102 296 46z m-4291 -218 c33 -18 51 -54 51 -105 0
-50 -30 -88 -81 -101 -54 -15 -107 10 -132 62 -36 74 14 158 95 158 21 0 51
-6 67 -14z m-1698 -382 c96 -53 146 -171 116 -275 -58 -198 -298 -253 -429
-99 -78 91 -78 229 0 320 79 93 202 114 313 54z m1825 -160 c82 -91 150 -169
152 -173 3 -8 -393 81 -402 90 -6 6 89 249 97 249 3 0 72 -75 153 -166z m1899
-375 c112 -53 172 -187 133 -300 -59 -174 -276 -231 -406 -106 -56 54 -77 102
-76 182 0 75 13 108 61 165 63 75 196 102 288 59z m-1284 -17 c101 -41 162
-165 139 -279 -40 -189 -282 -260 -419 -122 -47 47 -71 103 -71 171 0 65 10
97 47 151 61 89 195 124 304 79z m2891 -40 c56 -52 40 -150 -28 -178 -43 -18
-58 -18 -100 2 -24 11 -38 28 -50 59 -15 41 -15 46 2 82 36 73 118 90 176 35z
m-4282 -431 c50 -35 72 -81 68 -137 -7 -88 -67 -144 -153 -144 -128 0 -197
157 -112 255 46 53 142 66 197 26z m3820 -210 c97 -68 92 -204 -10 -258 -53
-28 -82 -29 -137 -2 -50 24 -83 77 -83 134 0 115 137 190 230 126z"/>
<path d="M3992 6885 c0 -16 2 -22 5 -12 2 9 2 23 0 30 -3 6 -5 -1 -5 -18z"/>
<path d="M8645 8446 c10 -14 19 -26 22 -26 7 0 -17 39 -28 46 -6 3 -3 -5 6
-20z"/>
<path d="M8062 8135 c12 -24 23 -43 26 -41 4 5 -36 86 -43 86 -3 0 5 -20 17
-45z"/>
<path d="M8841 7894 c0 -11 3 -14 6 -6 3 7 2 16 -1 19 -3 4 -6 -2 -5 -13z"/>
<path d="M8852 7850 c0 -14 2 -19 5 -12 2 6 2 18 0 25 -3 6 -5 1 -5 -13z"/>
<path d="M8862 7795 c0 -16 2 -22 5 -12 2 9 2 23 0 30 -3 6 -5 -1 -5 -18z"/>
<path d="M8210 7784 c0 -6 7 -19 16 -30 14 -18 14 -18 3 6 -14 31 -19 36 -19
24z"/>
<path d="M2792 7094 c-25 -17 -30 -54 -7 -54 8 0 15 -5 15 -11 0 -5 -6 -7 -12
-3 -7 4 -4 -2 6 -14 22 -26 53 -28 84 -6 28 19 28 44 1 78 -23 29 -54 33 -87
10z"/>
<path d="M1278 6601 c-105 -34 -201 -126 -229 -222 l-11 -36 -45 8 c-57 11
-161 -9 -230 -45 -27 -13 -73 -50 -101 -81 -61 -67 -87 -137 -87 -235 2 -284
322 -466 586 -334 62 31 143 122 163 181 l16 48 93 1 c114 0 184 25 257 91 74
67 122 177 119 276 -1 21 -6 8 -14 -36 -23 -115 -85 -195 -184 -240 -35 -16
-67 -21 -136 -21 -49 -1 -100 3 -112 7 -19 7 -23 4 -28 -20 -24 -109 -81 -185
-174 -230 -49 -25 -67 -28 -146 -27 -75 0 -99 5 -145 26 -81 38 -134 89 -172
166 -28 57 -33 77 -32 137 1 131 76 238 199 284 65 24 170 30 219 11 36 -13
36 -13 36 10 0 41 42 130 81 170 23 23 66 54 97 68 49 23 71 27 147 27 76 0
99 -4 146 -26 31 -15 76 -44 100 -65 l44 -38 -39 41 c-99 106 -275 150 -418
104z"/>
<path d="M1466 6407 c-15 -11 -16 -17 -5 -40 12 -27 20 -31 49 -27 30 4 40 21
28 44 -20 37 -42 45 -72 23z"/>
<path d="M1791 6304 c0 -11 3 -14 6 -6 3 7 2 16 -1 19 -3 4 -6 -2 -5 -13z"/>
<path d="M1012 6138 c-25 -25 -7 -68 28 -68 9 0 25 6 35 14 18 13 18 15 2 40
-19 28 -45 34 -65 14z"/>
<path d="M2255 5906 c-65 -29 -95 -87 -95 -184 0 -62 12 -113 81 -340 57 -188
60 -238 25 -325 -66 -161 -203 -281 -461 -407 -161 -78 -248 -104 -355 -104
-89 0 -146 13 -193 46 -16 11 -30 18 -33 16 -7 -8 68 -56 116 -74 30 -11 76
-17 140 -17 123 -1 219 26 381 104 278 135 432 275 498 452 38 103 33 139 -55
422 -41 130 -47 162 -48 242 -1 87 0 94 26 119 19 20 39 28 77 32 44 4 57 1
94 -23 34 -23 38 -24 23 -7 -48 54 -155 77 -221 48z"/>
<path d="M2505 5806 c10 -14 19 -26 22 -26 7 0 -17 39 -28 46 -6 3 -3 -5 6
-20z"/>
<path d="M2670 5416 c0 -11 40 -86 45 -86 3 0 -4 19 -16 43 -23 45 -29 54 -29
43z"/>
<path d="M1461 5348 c-11 -45 -49 -98 -188 -263 -101 -120 -125 -168 -129
-260 l-3 -70 8 56 c11 78 46 135 172 282 119 140 146 184 156 252 7 57 -1 58
-16 3z"/>
<path d="M1190 4646 c0 -2 8 -10 18 -17 15 -13 16 -12 3 4 -13 16 -21 21 -21
13z"/>
<path d="M1853 1935 c-228 -63 -544 -269 -729 -476 -132 -146 -211 -317 -202
-439 9 -126 90 -226 319 -391 182 -132 198 -153 164 -219 -33 -64 -158 -102
-266 -81 -112 22 -198 71 -324 181 -95 83 -152 110 -237 110 -130 0 -145 -25
-74 -125 70 -97 182 -195 278 -243 109 -55 181 -72 301 -72 173 0 294 47 410
158 121 117 159 241 96 309 -13 14 -85 66 -159 116 -233 157 -299 241 -271
345 46 177 323 432 640 591 151 76 251 99 270 62 17 -30 -28 -104 -159 -262
-159 -192 -195 -268 -176 -372 7 -37 39 -77 61 -77 8 0 45 39 82 87 38 48 114
141 171 207 123 144 167 224 166 305 0 106 -53 220 -127 275 -36 27 -158 32
-234 11z"/>
<path d="M8902 1766 c-27 -30 -95 -113 -151 -185 -84 -107 -108 -131 -129
-132 -238 -12 -247 -13 -250 -37 -2 -13 5 -33 15 -44 22 -26 90 -57 122 -58
31 0 28 -6 -66 -136 -114 -157 -243 -346 -301 -441 -33 -55 -52 -78 -56 -68
-11 31 -40 13 -128 -80 -109 -115 -226 -205 -334 -257 -188 -90 -316 -64 -337
69 -8 51 16 162 52 239 l30 64 50 -35 c91 -61 204 -61 321 1 87 45 205 153
260 237 48 74 85 184 76 230 -8 45 -71 124 -131 165 -48 33 -53 34 -121 30
-154 -10 -353 -144 -521 -352 -74 -93 -144 -207 -170 -277 -15 -44 -33 -65
-33 -39 0 6 -8 10 -19 10 -11 0 -42 -31 -82 -82 -136 -178 -302 -318 -377
-318 -66 0 -82 45 -52 142 25 80 84 173 249 388 182 237 200 265 216 347 9 45
-12 111 -45 145 -62 62 -180 20 -389 -137 -62 -47 -110 -77 -106 -68 34 83 46
194 25 234 -20 37 -47 21 -128 -77 -117 -139 -227 -281 -337 -434 -53 -74
-105 -137 -115 -140 -10 -3 -49 -45 -87 -95 -134 -173 -297 -306 -379 -308
-44 -1 -56 16 -50 71 9 72 79 189 229 386 199 261 254 342 277 410 22 66 26
142 9 180 -25 53 -52 39 -138 -70 l-58 -73 -6 45 c-5 51 -31 92 -68 111 -59
31 -196 5 -307 -59 -199 -113 -486 -398 -579 -574 -26 -49 -27 -51 -43 -32 -9
11 -21 17 -30 13 -8 -3 -46 -47 -85 -96 -89 -115 -233 -255 -288 -279 -133
-61 -184 33 -104 192 20 40 80 127 134 193 256 317 294 380 301 505 3 66 1 78
-17 98 -34 35 -91 30 -188 -17 -72 -35 -205 -119 -285 -181 l-27 -21 11 38 c5
20 8 65 6 100 -5 82 -31 113 -94 113 -74 0 -305 -133 -422 -243 -38 -36 -38
-34 -12 33 40 102 35 230 -10 230 -32 0 -218 -227 -427 -522 -64 -90 -111
-148 -121 -148 -10 0 -46 -38 -82 -86 -81 -107 -229 -250 -299 -288 -58 -31
-117 -38 -132 -16 -17 26 0 99 41 180 23 43 105 162 183 264 199 261 254 342
277 410 22 66 26 142 9 180 -25 53 -52 39 -138 -70 l-58 -73 -6 45 c-9 84 -56
124 -145 124 -146 0 -343 -119 -562 -339 -136 -136 -204 -224 -264 -341 -54
-105 -78 -185 -79 -264 -1 -80 17 -128 58 -165 101 -88 295 -35 468 128 l37
35 0 -40 c0 -62 37 -124 90 -152 39 -21 55 -23 125 -20 94 5 161 33 262 109
35 27 65 49 66 49 1 0 2 -20 2 -45 1 -47 29 -97 58 -103 10 -2 49 48 120 155
208 315 398 531 603 685 114 85 229 147 245 131 12 -12 -38 -82 -191 -268
-243 -296 -330 -436 -352 -566 -13 -73 0 -131 35 -153 24 -16 45 0 91 70 258
391 499 655 762 833 68 45 149 84 166 79 12 -4 -58 -100 -170 -232 -124 -145
-241 -306 -279 -384 -58 -115 -58 -223 -2 -287 43 -48 111 -69 210 -63 70 4
91 11 177 53 83 41 111 62 193 144 l95 96 -7 -48 c-10 -59 4 -143 29 -176 41
-55 67 -66 160 -66 79 0 93 4 152 34 70 36 123 74 183 130 l37 35 0 -40 c0
-62 37 -124 90 -152 39 -21 55 -23 125 -20 94 5 161 33 260 108 l63 47 4 -48
c6 -56 30 -99 57 -99 14 0 53 50 134 173 217 326 365 502 535 635 132 102 300
197 318 179 10 -9 -17 -49 -116 -177 -202 -261 -266 -358 -321 -489 -27 -62
-33 -90 -33 -153 -1 -90 15 -120 85 -156 38 -20 55 -23 131 -20 80 4 95 8 181
51 108 53 211 142 273 234 21 32 41 61 44 65 3 4 6 -23 7 -60 2 -122 48 -203
141 -249 45 -22 73 -28 147 -31 203 -9 428 90 601 264 l71 72 -9 -41 c-14 -58
-4 -146 21 -194 40 -79 103 -108 215 -101 122 9 250 82 387 221 113 115 175
266 112 275 -17 2 -35 -15 -84 -80 -197 -260 -394 -393 -467 -315 -42 45 -38
127 13 243 41 92 250 390 520 740 46 60 59 64 191 64 71 0 96 4 108 16 20 19
20 18 1 55 -19 36 -70 69 -107 69 -16 0 -28 3 -28 8 0 4 16 39 35 77 61 120
69 255 16 255 -10 0 -41 -24 -69 -54z m-974 -596 c1 -15 -13 -51 -35 -90 -50
-85 -241 -279 -305 -309 -52 -25 -123 -30 -157 -11 -21 11 -21 11 11 56 109
152 250 286 368 349 76 41 114 42 118 5z m-5150 -26 c10 -142 -426 -719 -626
-827 -37 -20 -63 -27 -89 -25 l-38 3 0 65 c0 59 5 76 53 170 68 136 159 258
302 401 166 167 301 262 365 257 27 -3 30 -7 33 -44z m2860 0 c10 -142 -426
-719 -626 -827 -37 -20 -63 -27 -89 -25 l-38 3 0 65 c0 59 5 76 53 170 68 136
159 258 302 401 166 167 301 262 365 257 27 -3 30 -7 33 -44z"/>
</g>
</svg>
